<mxfile host="app.diagrams.net" agent="Mozilla/5.0 (Windows NT 10.0; Win64; x64) AppleWebKit/537.36 (KHTML, like Gecko) Chrome/139.0.0.0 Safari/537.36" version="28.1.0">
  <diagram name="Page-1" id="PPTvE273R6e3oO6PtxKX">
    <mxGraphModel dx="1892" dy="527" grid="1" gridSize="10" guides="1" tooltips="1" connect="1" arrows="1" fold="1" page="1" pageScale="1" pageWidth="850" pageHeight="1100" math="0" shadow="0">
      <root>
        <mxCell id="0" />
        <mxCell id="1" parent="0" />
        <mxCell id="JevYdN5PD1GzVJX0ecLo-1" value="" style="rounded=0;whiteSpace=wrap;html=1;fillColor=none;dashed=1;" parent="1" vertex="1">
          <mxGeometry x="-800" y="80" width="120" height="400" as="geometry" />
        </mxCell>
        <mxCell id="JevYdN5PD1GzVJX0ecLo-2" value="&lt;font style=&quot;font-size: 36px;&quot;&gt;Data Flow Diagram&lt;/font&gt;" style="text;html=1;align=center;verticalAlign=middle;whiteSpace=wrap;rounded=0;" parent="1" vertex="1">
          <mxGeometry x="-850" y="20" width="440" height="20" as="geometry" />
        </mxCell>
        <mxCell id="JevYdN5PD1GzVJX0ecLo-3" value="&lt;font style=&quot;font-size: 24px;&quot;&gt;Sources&lt;/font&gt;" style="rounded=1;whiteSpace=wrap;html=1;strokeColor=none;" parent="1" vertex="1">
          <mxGeometry x="-800" y="60" width="120" height="30" as="geometry" />
        </mxCell>
        <mxCell id="JevYdN5PD1GzVJX0ecLo-19" style="edgeStyle=orthogonalEdgeStyle;rounded=0;orthogonalLoop=1;jettySize=auto;html=1;entryX=0;entryY=0.5;entryDx=0;entryDy=0;" parent="1" source="JevYdN5PD1GzVJX0ecLo-4" target="JevYdN5PD1GzVJX0ecLo-8" edge="1">
          <mxGeometry relative="1" as="geometry" />
        </mxCell>
        <mxCell id="JevYdN5PD1GzVJX0ecLo-21" style="edgeStyle=orthogonalEdgeStyle;rounded=0;orthogonalLoop=1;jettySize=auto;html=1;" parent="1" source="JevYdN5PD1GzVJX0ecLo-4" target="JevYdN5PD1GzVJX0ecLo-10" edge="1">
          <mxGeometry relative="1" as="geometry" />
        </mxCell>
        <mxCell id="JevYdN5PD1GzVJX0ecLo-22" style="edgeStyle=orthogonalEdgeStyle;rounded=0;orthogonalLoop=1;jettySize=auto;html=1;entryX=0;entryY=0.5;entryDx=0;entryDy=0;" parent="1" source="JevYdN5PD1GzVJX0ecLo-4" target="JevYdN5PD1GzVJX0ecLo-9" edge="1">
          <mxGeometry relative="1" as="geometry" />
        </mxCell>
        <mxCell id="JevYdN5PD1GzVJX0ecLo-4" value="CRM" style="image;aspect=fixed;html=1;points=[];align=center;fontSize=12;image=img/lib/azure2/general/Folder_Blank.svg;" parent="1" vertex="1">
          <mxGeometry x="-774.5" y="182" width="69" height="56.00000000000001" as="geometry" />
        </mxCell>
        <mxCell id="JevYdN5PD1GzVJX0ecLo-28" style="edgeStyle=orthogonalEdgeStyle;rounded=0;orthogonalLoop=1;jettySize=auto;html=1;entryX=0;entryY=0.5;entryDx=0;entryDy=0;" parent="1" source="JevYdN5PD1GzVJX0ecLo-5" target="JevYdN5PD1GzVJX0ecLo-23" edge="1">
          <mxGeometry relative="1" as="geometry" />
        </mxCell>
        <mxCell id="JevYdN5PD1GzVJX0ecLo-29" style="edgeStyle=orthogonalEdgeStyle;rounded=0;orthogonalLoop=1;jettySize=auto;html=1;" parent="1" source="JevYdN5PD1GzVJX0ecLo-5" target="JevYdN5PD1GzVJX0ecLo-24" edge="1">
          <mxGeometry relative="1" as="geometry" />
        </mxCell>
        <mxCell id="JevYdN5PD1GzVJX0ecLo-30" style="edgeStyle=orthogonalEdgeStyle;rounded=0;orthogonalLoop=1;jettySize=auto;html=1;entryX=0;entryY=0.5;entryDx=0;entryDy=0;" parent="1" source="JevYdN5PD1GzVJX0ecLo-5" target="JevYdN5PD1GzVJX0ecLo-25" edge="1">
          <mxGeometry relative="1" as="geometry" />
        </mxCell>
        <mxCell id="JevYdN5PD1GzVJX0ecLo-5" value="ERP" style="image;aspect=fixed;html=1;points=[];align=center;fontSize=12;image=img/lib/azure2/general/Folder_Blank.svg;" parent="1" vertex="1">
          <mxGeometry x="-774.5" y="342" width="69" height="56.00000000000001" as="geometry" />
        </mxCell>
        <mxCell id="JevYdN5PD1GzVJX0ecLo-6" value="" style="rounded=1;whiteSpace=wrap;html=1;fillColor=none;strokeColor=#d79b00;" parent="1" vertex="1">
          <mxGeometry x="-600" y="130" width="160" height="350" as="geometry" />
        </mxCell>
        <mxCell id="JevYdN5PD1GzVJX0ecLo-7" value="&lt;font style=&quot;font-size: 24px;&quot;&gt;Bronze Layer&lt;/font&gt;" style="rounded=1;whiteSpace=wrap;html=1;fillColor=#ffe6cc;strokeColor=#d79b00;" parent="1" vertex="1">
          <mxGeometry x="-600" y="80" width="160" height="40" as="geometry" />
        </mxCell>
        <mxCell id="7iwy5B6egX9SLGxtFW_F-31" style="edgeStyle=orthogonalEdgeStyle;rounded=0;orthogonalLoop=1;jettySize=auto;html=1;entryX=0;entryY=0.5;entryDx=0;entryDy=0;" edge="1" parent="1" source="JevYdN5PD1GzVJX0ecLo-8" target="7iwy5B6egX9SLGxtFW_F-1">
          <mxGeometry relative="1" as="geometry" />
        </mxCell>
        <mxCell id="JevYdN5PD1GzVJX0ecLo-8" value="&lt;font style=&quot;font-size: 16px;&quot;&gt;crm_sales_details&lt;/font&gt;" style="rounded=1;whiteSpace=wrap;html=1;fillColor=#ffe6cc;strokeColor=#d79b00;" parent="1" vertex="1">
          <mxGeometry x="-590" y="160" width="140" height="20" as="geometry" />
        </mxCell>
        <mxCell id="7iwy5B6egX9SLGxtFW_F-35" style="edgeStyle=orthogonalEdgeStyle;rounded=0;orthogonalLoop=1;jettySize=auto;html=1;entryX=0;entryY=0.5;entryDx=0;entryDy=0;" edge="1" parent="1" source="JevYdN5PD1GzVJX0ecLo-9" target="7iwy5B6egX9SLGxtFW_F-2">
          <mxGeometry relative="1" as="geometry" />
        </mxCell>
        <mxCell id="JevYdN5PD1GzVJX0ecLo-9" value="&lt;font style=&quot;font-size: 16px;&quot;&gt;crm_prd_info&lt;/font&gt;" style="rounded=1;whiteSpace=wrap;html=1;fillColor=#ffe6cc;strokeColor=#d79b00;" parent="1" vertex="1">
          <mxGeometry x="-590" y="240" width="140" height="20" as="geometry" />
        </mxCell>
        <mxCell id="7iwy5B6egX9SLGxtFW_F-32" value="" style="edgeStyle=orthogonalEdgeStyle;rounded=0;orthogonalLoop=1;jettySize=auto;html=1;" edge="1" parent="1" source="JevYdN5PD1GzVJX0ecLo-10" target="7iwy5B6egX9SLGxtFW_F-3">
          <mxGeometry relative="1" as="geometry" />
        </mxCell>
        <mxCell id="JevYdN5PD1GzVJX0ecLo-10" value="&lt;font style=&quot;font-size: 16px;&quot;&gt;crm_cust_info&lt;/font&gt;" style="rounded=1;whiteSpace=wrap;html=1;fillColor=#ffe6cc;strokeColor=#d79b00;" parent="1" vertex="1">
          <mxGeometry x="-590" y="200" width="140" height="20" as="geometry" />
        </mxCell>
        <mxCell id="7iwy5B6egX9SLGxtFW_F-36" style="edgeStyle=orthogonalEdgeStyle;rounded=0;orthogonalLoop=1;jettySize=auto;html=1;entryX=0;entryY=0.5;entryDx=0;entryDy=0;" edge="1" parent="1" source="JevYdN5PD1GzVJX0ecLo-23" target="7iwy5B6egX9SLGxtFW_F-4">
          <mxGeometry relative="1" as="geometry" />
        </mxCell>
        <mxCell id="JevYdN5PD1GzVJX0ecLo-23" value="&lt;font style=&quot;font-size: 16px;&quot;&gt;erp_cust_az12&lt;/font&gt;" style="rounded=1;whiteSpace=wrap;html=1;fillColor=#ffe6cc;strokeColor=#d79b00;" parent="1" vertex="1">
          <mxGeometry x="-590" y="320" width="140" height="20" as="geometry" />
        </mxCell>
        <mxCell id="7iwy5B6egX9SLGxtFW_F-37" style="edgeStyle=orthogonalEdgeStyle;rounded=0;orthogonalLoop=1;jettySize=auto;html=1;entryX=0;entryY=0.5;entryDx=0;entryDy=0;" edge="1" parent="1" source="JevYdN5PD1GzVJX0ecLo-24" target="7iwy5B6egX9SLGxtFW_F-5">
          <mxGeometry relative="1" as="geometry" />
        </mxCell>
        <mxCell id="JevYdN5PD1GzVJX0ecLo-24" value="&lt;font style=&quot;font-size: 16px;&quot;&gt;erp_loc_a101&lt;/font&gt;" style="rounded=1;whiteSpace=wrap;html=1;fillColor=#ffe6cc;strokeColor=#d79b00;" parent="1" vertex="1">
          <mxGeometry x="-590" y="360" width="140" height="20" as="geometry" />
        </mxCell>
        <mxCell id="7iwy5B6egX9SLGxtFW_F-38" style="edgeStyle=orthogonalEdgeStyle;rounded=0;orthogonalLoop=1;jettySize=auto;html=1;entryX=0;entryY=0.5;entryDx=0;entryDy=0;" edge="1" parent="1" source="JevYdN5PD1GzVJX0ecLo-25" target="7iwy5B6egX9SLGxtFW_F-6">
          <mxGeometry relative="1" as="geometry" />
        </mxCell>
        <mxCell id="JevYdN5PD1GzVJX0ecLo-25" value="&lt;font style=&quot;font-size: 16px;&quot;&gt;erpp_px_cat_g1v2&lt;/font&gt;" style="rounded=1;whiteSpace=wrap;html=1;fillColor=#ffe6cc;strokeColor=#d79b00;" parent="1" vertex="1">
          <mxGeometry x="-590" y="400" width="140" height="20" as="geometry" />
        </mxCell>
        <mxCell id="7iwy5B6egX9SLGxtFW_F-1" value="&lt;font style=&quot;font-size: 16px;&quot;&gt;crm_sales_details&lt;/font&gt;" style="rounded=1;whiteSpace=wrap;html=1;fillColor=#f5f5f5;strokeColor=#666666;fontColor=#333333;" vertex="1" parent="1">
          <mxGeometry x="-390" y="160" width="140" height="20" as="geometry" />
        </mxCell>
        <mxCell id="7iwy5B6egX9SLGxtFW_F-2" value="&lt;font style=&quot;font-size: 16px;&quot;&gt;crm_prd_info&lt;/font&gt;" style="rounded=1;whiteSpace=wrap;html=1;fillColor=#f5f5f5;strokeColor=#666666;fontColor=#333333;" vertex="1" parent="1">
          <mxGeometry x="-390" y="240" width="140" height="20" as="geometry" />
        </mxCell>
        <mxCell id="7iwy5B6egX9SLGxtFW_F-3" value="&lt;font style=&quot;font-size: 16px;&quot;&gt;crm_cust_info&lt;/font&gt;" style="rounded=1;whiteSpace=wrap;html=1;fillColor=#f5f5f5;strokeColor=#666666;fontColor=#333333;" vertex="1" parent="1">
          <mxGeometry x="-390" y="200" width="140" height="20" as="geometry" />
        </mxCell>
        <mxCell id="7iwy5B6egX9SLGxtFW_F-4" value="&lt;font style=&quot;font-size: 16px;&quot;&gt;erp_cust_az12&lt;/font&gt;" style="rounded=1;whiteSpace=wrap;html=1;fillColor=#f5f5f5;strokeColor=#666666;fontColor=#333333;" vertex="1" parent="1">
          <mxGeometry x="-390" y="320" width="140" height="20" as="geometry" />
        </mxCell>
        <mxCell id="7iwy5B6egX9SLGxtFW_F-5" value="&lt;font style=&quot;font-size: 16px;&quot;&gt;erp_loc_a101&lt;/font&gt;" style="rounded=1;whiteSpace=wrap;html=1;fillColor=#f5f5f5;strokeColor=#666666;fontColor=#333333;" vertex="1" parent="1">
          <mxGeometry x="-390" y="360" width="140" height="20" as="geometry" />
        </mxCell>
        <mxCell id="7iwy5B6egX9SLGxtFW_F-6" value="&lt;font style=&quot;font-size: 16px;&quot;&gt;erpp_px_cat_g1v2&lt;/font&gt;" style="rounded=1;whiteSpace=wrap;html=1;fillColor=#f5f5f5;strokeColor=#666666;fontColor=#333333;" vertex="1" parent="1">
          <mxGeometry x="-390" y="400" width="140" height="20" as="geometry" />
        </mxCell>
        <mxCell id="7iwy5B6egX9SLGxtFW_F-7" value="&lt;font style=&quot;font-size: 24px;&quot;&gt;Silver Layer&lt;/font&gt;" style="rounded=1;whiteSpace=wrap;html=1;fillColor=#f5f5f5;strokeColor=#666666;fontColor=#333333;" vertex="1" parent="1">
          <mxGeometry x="-400" y="80" width="160" height="40" as="geometry" />
        </mxCell>
        <mxCell id="7iwy5B6egX9SLGxtFW_F-17" value="&lt;font style=&quot;font-size: 16px;&quot;&gt;fact_sales&lt;/font&gt;" style="rounded=1;whiteSpace=wrap;html=1;fillColor=#fff2cc;strokeColor=#d6b656;" vertex="1" parent="1">
          <mxGeometry x="-190" y="160" width="140" height="20" as="geometry" />
        </mxCell>
        <mxCell id="7iwy5B6egX9SLGxtFW_F-18" value="&lt;font style=&quot;font-size: 16px;&quot;&gt;dim_products&lt;/font&gt;" style="rounded=1;whiteSpace=wrap;html=1;fillColor=#fff2cc;strokeColor=#d6b656;" vertex="1" parent="1">
          <mxGeometry x="-190" y="315" width="140" height="20" as="geometry" />
        </mxCell>
        <mxCell id="7iwy5B6egX9SLGxtFW_F-19" value="&lt;font style=&quot;font-size: 16px;&quot;&gt;dim_customers&lt;/font&gt;" style="rounded=1;whiteSpace=wrap;html=1;fillColor=#fff2cc;strokeColor=#d6b656;" vertex="1" parent="1">
          <mxGeometry x="-190" y="275" width="140" height="20" as="geometry" />
        </mxCell>
        <mxCell id="7iwy5B6egX9SLGxtFW_F-23" value="&lt;font style=&quot;font-size: 24px;&quot;&gt;Gold Layer&lt;/font&gt;" style="rounded=1;whiteSpace=wrap;html=1;fillColor=#fff2cc;strokeColor=#d6b656;" vertex="1" parent="1">
          <mxGeometry x="-200" y="80" width="160" height="40" as="geometry" />
        </mxCell>
        <mxCell id="7iwy5B6egX9SLGxtFW_F-43" value="" style="endArrow=classic;html=1;rounded=0;entryX=0;entryY=0.5;entryDx=0;entryDy=0;" edge="1" parent="1" target="7iwy5B6egX9SLGxtFW_F-17">
          <mxGeometry width="50" height="50" relative="1" as="geometry">
            <mxPoint x="-250" y="170" as="sourcePoint" />
            <mxPoint x="-200" y="120" as="targetPoint" />
          </mxGeometry>
        </mxCell>
        <mxCell id="7iwy5B6egX9SLGxtFW_F-44" value="" style="endArrow=classic;html=1;rounded=0;exitX=1;exitY=0.5;exitDx=0;exitDy=0;entryX=0;entryY=0.5;entryDx=0;entryDy=0;jumpStyle=gap;" edge="1" parent="1" source="7iwy5B6egX9SLGxtFW_F-3" target="7iwy5B6egX9SLGxtFW_F-19">
          <mxGeometry width="50" height="50" relative="1" as="geometry">
            <mxPoint x="-240" y="240" as="sourcePoint" />
            <mxPoint x="-190" y="190" as="targetPoint" />
          </mxGeometry>
        </mxCell>
        <mxCell id="7iwy5B6egX9SLGxtFW_F-45" value="" style="endArrow=classic;html=1;rounded=0;exitX=1;exitY=0.75;exitDx=0;exitDy=0;entryX=0;entryY=0.5;entryDx=0;entryDy=0;jumpStyle=gap;" edge="1" parent="1" source="7iwy5B6egX9SLGxtFW_F-2" target="7iwy5B6egX9SLGxtFW_F-18">
          <mxGeometry width="50" height="50" relative="1" as="geometry">
            <mxPoint x="-160" y="390" as="sourcePoint" />
            <mxPoint x="-110" y="340" as="targetPoint" />
          </mxGeometry>
        </mxCell>
        <mxCell id="7iwy5B6egX9SLGxtFW_F-46" value="" style="endArrow=classic;html=1;rounded=0;entryX=0;entryY=0.5;entryDx=0;entryDy=0;exitX=1;exitY=0.5;exitDx=0;exitDy=0;jumpStyle=gap;" edge="1" parent="1" source="7iwy5B6egX9SLGxtFW_F-4" target="7iwy5B6egX9SLGxtFW_F-19">
          <mxGeometry width="50" height="50" relative="1" as="geometry">
            <mxPoint x="-220" y="450" as="sourcePoint" />
            <mxPoint x="-170" y="400" as="targetPoint" />
          </mxGeometry>
        </mxCell>
        <mxCell id="7iwy5B6egX9SLGxtFW_F-47" value="" style="endArrow=classic;html=1;rounded=0;exitX=1;exitY=0.5;exitDx=0;exitDy=0;jumpStyle=gap;" edge="1" parent="1" source="7iwy5B6egX9SLGxtFW_F-5">
          <mxGeometry width="50" height="50" relative="1" as="geometry">
            <mxPoint x="-120" y="460" as="sourcePoint" />
            <mxPoint x="-190" y="290" as="targetPoint" />
          </mxGeometry>
        </mxCell>
        <mxCell id="7iwy5B6egX9SLGxtFW_F-48" value="" style="endArrow=classic;html=1;rounded=0;exitX=1;exitY=0.5;exitDx=0;exitDy=0;jumpStyle=gap;" edge="1" parent="1" source="7iwy5B6egX9SLGxtFW_F-6">
          <mxGeometry width="50" height="50" relative="1" as="geometry">
            <mxPoint x="-200" y="430" as="sourcePoint" />
            <mxPoint x="-190" y="325" as="targetPoint" />
          </mxGeometry>
        </mxCell>
        <mxCell id="7iwy5B6egX9SLGxtFW_F-49" value="" style="rounded=1;whiteSpace=wrap;html=1;fillColor=none;strokeColor=#666666;fontColor=#333333;" vertex="1" parent="1">
          <mxGeometry x="-400" y="130" width="160" height="350" as="geometry" />
        </mxCell>
        <mxCell id="7iwy5B6egX9SLGxtFW_F-50" value="" style="rounded=1;whiteSpace=wrap;html=1;fillColor=none;strokeColor=#d6b656;" vertex="1" parent="1">
          <mxGeometry x="-200" y="130" width="160" height="350" as="geometry" />
        </mxCell>
      </root>
    </mxGraphModel>
  </diagram>
</mxfile>
